<svg width="119" height="15" viewBox="0 0 119 15" fill="none" xmlns="http://www.w3.org/2000/svg">
<path d="M0.26 2.7V0.4H10.26V2.7H6.46V14H4.06V2.7H0.26ZM14.6073 9V14H12.2073V0.4H16.7473C18.1207 0.4 19.174 0.753333 19.9073 1.46C20.654 2.15333 21.0273 3.08667 21.0273 4.26V5.12C21.0273 5.89333 20.8607 6.57333 20.5273 7.16C20.194 7.74667 19.714 8.19333 19.0873 8.5C20.1807 10.3667 21.114 12.2 21.8873 14H19.1473C18.4807 12.3333 17.6873 10.6667 16.7673 9H14.6073ZM16.7473 2.6H14.6073V6.8H16.7473C17.334 6.8 17.7807 6.65333 18.0873 6.36C18.4073 6.05333 18.5673 5.64 18.5673 5.12V4.26C18.5673 3.75333 18.4073 3.35333 18.0873 3.06C17.7807 2.75333 17.334 2.6 16.7473 2.6ZM32.0748 11.7V14H24.1948V0.4H31.8748V2.7H26.5948V5.96H31.2748V8.26H26.5948V11.7H32.0748ZM34.7175 14V0.4H36.9175C37.9708 1.77333 38.9708 3.22667 39.9175 4.76C40.8642 6.28 41.7242 7.84667 42.4975 9.46L42.3175 5.4V0.4H44.6175V14H42.4175C41.5642 12.32 40.6775 10.6333 39.7575 8.94C38.8508 7.23333 37.8842 5.62667 36.8575 4.12L37.0175 8.8V14H34.7175ZM48.1698 14V0.4H52.7698C54.3965 0.4 55.6365 0.853333 56.4898 1.76C57.3432 2.66667 57.7698 4 57.7698 5.76V8.62C57.7698 10.3933 57.3432 11.7333 56.4898 12.64C55.6365 13.5467 54.3965 14 52.7698 14H48.1698ZM52.6698 2.7H50.5698V11.7H52.6698C53.6165 11.7 54.2898 11.4667 54.6898 11C55.1032 10.5333 55.3098 9.74 55.3098 8.62V5.76C55.3098 4.65333 55.1032 3.86667 54.6898 3.4C54.2898 2.93333 53.6165 2.7 52.6698 2.7ZM62.9272 2.7V0.4H72.9272V2.7H69.1272V14H66.7272V2.7H62.9272ZM77.2745 9V14H74.8745V0.4H79.4145C80.7879 0.4 81.8412 0.753333 82.5745 1.46C83.3212 2.15333 83.6945 3.08667 83.6945 4.26V5.12C83.6945 5.89333 83.5279 6.57333 83.1945 7.16C82.8612 7.74667 82.3812 8.19333 81.7545 8.5C82.8479 10.3667 83.7812 12.2 84.5545 14H81.8145C81.1479 12.3333 80.3545 10.6667 79.4345 9H77.2745ZM79.4145 2.6H77.2745V6.8H79.4145C80.0012 6.8 80.4479 6.65333 80.7545 6.36C81.0745 6.05333 81.2345 5.64 81.2345 5.12V4.26C81.2345 3.75333 81.0745 3.35333 80.7545 3.06C80.4479 2.75333 80.0012 2.6 79.4145 2.6ZM96.482 5.76V8.62C96.482 10.3533 96.0487 11.72 95.182 12.72C94.3154 13.7067 93.0487 14.2 91.382 14.2C89.702 14.2 88.4287 13.7067 87.562 12.72C86.7087 11.72 86.282 10.3533 86.282 8.62V5.76C86.282 4.02667 86.7087 2.66667 87.562 1.68C88.4287 0.693332 89.702 0.199999 91.382 0.199999C93.0487 0.199999 94.3154 0.693332 95.182 1.68C96.0487 2.66667 96.482 4.02667 96.482 5.76ZM94.022 5.76C94.022 4.66667 93.8087 3.84667 93.382 3.3C92.9554 2.74 92.2887 2.46 91.382 2.46C90.4754 2.46 89.8087 2.74 89.382 3.3C88.9554 3.84667 88.742 4.66667 88.742 5.76V8.62C88.742 9.71333 88.9554 10.54 89.382 11.1C89.8087 11.66 90.4754 11.94 91.382 11.94C92.2887 11.94 92.9554 11.66 93.382 11.1C93.8087 10.54 94.022 9.71333 94.022 8.62V5.76ZM108.682 0.4L104.362 14H101.902L97.562 0.4H100.202L102.262 7.24L103.202 10.76L104.202 7.22L106.242 0.4H108.682ZM118.522 11.7V14H110.642V0.4H118.322V2.7H113.042V5.96H117.722V8.26H113.042V11.7H118.522Z" fill="#161A24"/>
</svg>
