<svg width="20" height="20" viewBox="0 0 20 20" fill="none" xmlns="http://www.w3.org/2000/svg">
<path d="M12.5 2.93589C10.884 2.3547 9.116 2.3547 7.5 2.93589H12.5Z" fill="#3B82F6"/>
<path d="M12.5 2.93589C10.884 2.3547 9.116 2.3547 7.5 2.93589" stroke="#3B82F6" stroke-width="1.5" stroke-linecap="round" stroke-linejoin="round"/>
<path d="M2.63037 8.63195C2.94283 6.94468 3.82561 5.41603 5.13082 4.30206L2.63037 8.63195Z" fill="#3B82F6"/>
<path d="M2.63037 8.63195C2.94283 6.94468 3.82561 5.41603 5.13082 4.30206" stroke="#3B82F6" stroke-width="1.5" stroke-linecap="round" stroke-linejoin="round"/>
<path d="M5.13082 15.6979C3.82563 14.5839 2.94286 13.0553 2.63037 11.368L5.13082 15.6979Z" fill="#3B82F6"/>
<path d="M5.13082 15.6979C3.82563 14.5839 2.94286 13.0553 2.63037 11.368" stroke="#3B82F6" stroke-width="1.5" stroke-linecap="round" stroke-linejoin="round"/>
<path d="M7.5 17.0641C9.116 17.6453 10.884 17.6453 12.5 17.0641H7.5Z" fill="#3B82F6"/>
<path d="M7.5 17.0641C9.116 17.6453 10.884 17.6453 12.5 17.0641" stroke="#3B82F6" stroke-width="1.5" stroke-linecap="round" stroke-linejoin="round"/>
<path d="M17.3696 8.63195C17.0571 6.94468 16.1744 5.41603 14.8691 4.30206" stroke="#3B82F6" stroke-width="1.5" stroke-linecap="round" stroke-linejoin="round"/>
<path d="M14.8691 15.6979C16.1743 14.5839 17.0571 13.0553 17.3696 11.368" stroke="#3B82F6" stroke-width="1.5" stroke-linecap="round" stroke-linejoin="round"/>
</svg>
