<svg width="26" height="26" viewBox="0 0 26 26" fill="none" xmlns="http://www.w3.org/2000/svg">
<path fill-rule="evenodd" clip-rule="evenodd" d="M18.9692 5.90909C18.9445 5.81372 18.919 5.71813 18.8922 5.62245C18.5442 4.37436 17.9963 3.01816 17.1027 1.95C16.1813 0.848569 14.836 0 13 0C11.164 0 9.81863 0.848569 8.89727 1.95C8.00374 3.01816 7.45572 4.37436 7.10771 5.62246C7.08103 5.71813 7.05539 5.81372 7.03073 5.90909H4.92124C2.83938 5.90909 1.11407 7.35629 0.975582 9.2187L0.00893588 22.2187C-0.143217 24.2651 1.66712 26 3.95461 26H22.0453C24.3328 26 26.1432 24.2651 25.9911 22.2187L25.0243 9.2187C24.8859 7.35629 23.1606 5.90909 21.0788 5.90909H18.9692ZM7.72743 11.8182C8.4827 11.8182 9.04301 11.3081 9.04558 10.6342C9.04578 10.6061 9.04615 10.578 9.04668 10.5499C9.04784 10.4876 9.0502 10.3936 9.05504 10.2723C9.0647 10.0295 9.08419 9.67908 9.12341 9.25723C9.15122 8.9579 9.18869 8.62564 9.239 8.27273H16.761C16.8113 8.62564 16.8487 8.9579 16.8766 9.25724C16.9158 9.67908 16.9353 10.0295 16.9449 10.2723C16.9498 10.3936 16.9522 10.4876 16.9534 10.5499C16.9539 10.5789 16.9543 10.6078 16.9544 10.6368C16.9544 10.6368 16.9544 11.8182 18.2726 11.8182C19.5907 11.8182 19.5907 10.6348 19.5907 10.6348C19.5906 10.5933 19.59 10.5519 19.5893 10.5105C19.5878 10.4343 19.585 10.3252 19.5795 10.1879C19.5687 9.91366 19.5469 9.52547 19.5037 9.06094C19.4813 8.81875 19.4527 8.55414 19.4166 8.27273H21.0788C21.7728 8.27273 22.3479 8.75512 22.394 9.37593L23.3606 22.376C23.4113 23.0581 22.8079 23.6364 22.0453 23.6364H3.95461C3.19212 23.6364 2.58867 23.0581 2.63938 22.376L3.60602 9.37593C3.65219 8.75512 4.22729 8.27273 4.92124 8.27273H6.58339C6.54723 8.55414 6.51873 8.81875 6.49622 9.06095C6.45305 9.52547 6.43135 9.91366 6.42043 10.1879C6.41496 10.3252 6.41218 10.4343 6.41077 10.5105C6.41 10.5511 6.40943 10.5917 6.40929 10.6323C6.40829 11.3067 6.97389 11.8182 7.72743 11.8182ZM9.74883 5.90909H16.2512C15.9464 4.90835 15.5321 4.01187 14.9937 3.36818C14.4322 2.69689 13.8002 2.36364 13 2.36364C12.1998 2.36364 11.5678 2.69689 11.0063 3.36818C10.4678 4.01187 10.0536 4.90835 9.74883 5.90909Z" fill="#0F0F0F"/>
</svg>
