<svg width="38" height="27" viewBox="0 0 38 27" fill="none" xmlns="http://www.w3.org/2000/svg">
<path d="M32.8115 0H5.18846C2.33846 0 0 2.25588 0 5.00522V21.9948C0 24.7441 2.33846 27 5.18846 27H32.8115C35.6615 27 38 24.7441 38 21.9948V5.00522C38 2.25588 35.7346 0 32.8115 0ZM5.18846 2.96084H32.8115C33.9808 2.96084 34.9308 3.87729 34.9308 5.00522V5.71018L20.2423 15.5796C19.5846 16.0026 18.3423 16.0026 17.6846 15.5796L2.99615 5.71018V5.00522C3.06923 3.87729 4.01923 2.96084 5.18846 2.96084ZM32.8115 24.1097H5.18846C4.01923 24.1097 3.06923 23.1932 3.06923 22.0653V9.30548L16.0038 17.9765C16.8808 18.5405 17.9769 18.8225 19.0731 18.8225C20.1692 18.8225 21.2654 18.5405 22.1423 17.9765L35.0038 9.30548V21.9948C35.0038 23.1932 33.9808 24.1097 32.8115 24.1097Z" fill="#161A24"/>
</svg>
