<svg width="25" height="25" viewBox="0 0 25 25" fill="none" xmlns="http://www.w3.org/2000/svg">
<path d="M24.9998 12.4227C24.9706 10.0259 24.2612 7.68744 22.9552 5.68271C21.6492 3.67798 19.8012 2.09045 17.6286 1.10711C15.4559 0.123764 13.0493 -0.21444 10.692 0.132301C8.33481 0.479058 6.12512 1.49631 4.32324 3.06431C2.52134 4.6323 1.20229 6.6857 0.521409 8.98269C-0.159455 11.2797 -0.173799 13.7246 0.480095 16.0295C1.13399 18.3345 2.42887 20.4033 4.21225 21.9926C5.99561 23.5819 8.19322 24.6254 10.5462 25V16.0858H7.42115V12.4227H10.5462V9.63993C10.4739 8.99292 10.5436 8.33778 10.7505 7.7208C10.9573 7.10382 11.2963 6.54004 11.7433 6.06926C12.1903 5.59846 12.7346 5.23213 13.3377 4.99613C13.9409 4.76012 14.5882 4.66017 15.2339 4.70338C16.1711 4.71628 17.1061 4.80038 18.0308 4.95492V8.09926H16.4683C16.1989 8.06506 15.9251 8.09223 15.6676 8.17874C15.41 8.26526 15.175 8.40891 14.98 8.59908C14.7849 8.78925 14.6349 9.02108 14.541 9.27739C14.447 9.53381 14.4115 9.80815 14.437 10.0801V12.4541H17.9058L17.3433 16.1173H14.4526V24.9214C17.4056 24.4515 20.0935 22.9321 22.0286 20.639C23.9636 18.3458 25.0177 15.4309 24.9998 12.4227Z" fill="#3B82F6"/>
</svg>
