<svg width="10" height="7" viewBox="0 0 10 7" fill="none" xmlns="http://www.w3.org/2000/svg">
<path d="M0.823846 4.94134H0.384615C0.282609 4.94134 0.184781 4.98472 0.112651 5.06195C0.0405218 5.13918 0 5.24393 0 5.35315C0 5.46236 0.0405218 5.56711 0.112651 5.64434C0.184781 5.72157 0.282609 5.76496 0.384615 5.76496H0.823846C0.907797 6.11812 1.09925 6.43126 1.36797 6.65492C1.63668 6.87858 1.96734 7 2.30769 7C2.64805 7 2.9787 6.87858 3.24742 6.65492C3.51613 6.43126 3.70759 6.11812 3.79154 5.76496L9.61539 5.76496C9.71739 5.76496 9.81522 5.72157 9.88735 5.64434C9.95948 5.56711 10 5.46236 10 5.35315C10 5.24393 9.95948 5.13918 9.88735 5.06195C9.81522 4.98472 9.71739 4.94134 9.61539 4.94134H3.79154C3.70759 4.58817 3.51613 4.27503 3.24742 4.05137C2.9787 3.82771 2.64805 3.70629 2.30769 3.70629C1.96734 3.70629 1.63668 3.82771 1.36797 4.05137C1.09925 4.27503 0.907797 4.58817 0.823846 4.94134ZM3.07692 5.35315C3.07692 5.51604 3.03181 5.67528 2.94728 5.81072C2.86276 5.94617 2.74262 6.05173 2.60206 6.11407C2.46151 6.17641 2.30684 6.19272 2.15762 6.16094C2.00841 6.12916 1.87134 6.05072 1.76376 5.93553C1.65619 5.82035 1.58292 5.67359 1.55324 5.51383C1.52356 5.35406 1.53879 5.18846 1.59702 5.03796C1.65524 4.88746 1.75383 4.75883 1.88033 4.66833C2.00683 4.57783 2.15555 4.52953 2.30769 4.52953C2.51171 4.52953 2.70736 4.6163 2.85162 4.77076C2.99588 4.92522 3.07692 5.13471 3.07692 5.35315Z" fill="#3B82F6"/>
<path d="M3.51615 1.23504H0.384615C0.282609 1.23504 0.184781 1.27842 0.112651 1.35565C0.0405218 1.43288 0 1.53763 0 1.64685C0 1.75607 0.0405218 1.86081 0.112651 1.93804C0.184781 2.01527 0.282609 2.05866 0.384615 2.05866H3.51615C3.6001 2.41182 3.79156 2.72496 4.06028 2.94862C4.32899 3.17228 4.65964 3.2937 5 3.2937C5.34036 3.2937 5.67101 3.17228 5.93972 2.94862C6.20844 2.72496 6.3999 2.41182 6.48385 2.05866L9.61539 2.05866C9.71739 2.05866 9.81522 2.01527 9.88735 1.93804C9.95948 1.86081 10 1.75607 10 1.64685C10 1.53763 9.95948 1.43288 9.88735 1.35565C9.81522 1.27842 9.71739 1.23504 9.61539 1.23504H6.48385C6.3999 0.881876 6.20844 0.568731 5.93972 0.345073C5.67101 0.121414 5.34036 -6.67572e-06 5 -6.67572e-06C4.65964 -6.67572e-06 4.32899 0.121414 4.06028 0.345073C3.79156 0.568731 3.6001 0.881876 3.51615 1.23504ZM5.76923 1.64685C5.76923 1.80974 5.72412 1.96898 5.63959 2.10443C5.55507 2.23987 5.43493 2.34543 5.29437 2.40777C5.15381 2.47011 4.99915 2.48642 4.84993 2.45464C4.70071 2.42286 4.56365 2.34442 4.45607 2.22923C4.34849 2.11405 4.27523 1.96729 4.24555 1.80753C4.21587 1.64776 4.2311 1.48216 4.28932 1.33166C4.34754 1.18116 4.44614 1.05253 4.57264 0.962033C4.69914 0.871532 4.84786 0.823228 5 0.823228C5.20401 0.823228 5.39967 0.910002 5.54393 1.06446C5.68819 1.21892 5.76923 1.42841 5.76923 1.64685Z" fill="#3B82F6"/>
</svg>
