<svg width="25" height="25" viewBox="0 0 25 25" fill="none" xmlns="http://www.w3.org/2000/svg">
<path d="M12.5 14.6973C13.711 14.6973 14.7022 13.7109 14.7022 12.4951C14.7022 12.0166 14.5459 11.5723 14.2871 11.2109C13.8867 10.6592 13.2373 10.293 12.5049 10.293C11.7725 10.293 11.1231 10.6543 10.7227 11.2109C10.4639 11.5723 10.3076 12.0166 10.3076 12.4951C10.3028 13.7109 11.2891 14.6973 12.5 14.6973Z" fill="#3B82F6"/>
<path d="M17.3047 9.80957V7.96387V7.69043H17.0313L15.1855 7.69531L15.1953 9.81445L17.3047 9.80957Z" fill="#3B82F6"/>
<path d="M15.918 12.5C15.918 14.3848 14.3848 15.918 12.5 15.918C10.6152 15.918 9.08203 14.3848 9.08203 12.5C9.08203 12.0459 9.1748 11.6113 9.33594 11.2158H7.4707V16.333C7.4707 16.9922 8.00781 17.5293 8.66699 17.5293H16.333C16.9922 17.5293 17.5293 16.9922 17.5293 16.333V11.2158H15.6641C15.8301 11.6113 15.918 12.0459 15.918 12.5Z" fill="#3B82F6"/>
<path d="M12.5 0C5.5957 0 0 5.5957 0 12.5C0 19.4043 5.5957 25 12.5 25C19.4043 25 25 19.4043 25 12.5C25 5.5957 19.4043 0 12.5 0ZM18.75 11.2158V16.333C18.75 17.666 17.666 18.75 16.333 18.75H8.66699C7.33398 18.75 6.25 17.666 6.25 16.333V11.2158V8.66211C6.25 7.3291 7.33398 6.24512 8.66699 6.24512H16.333C17.666 6.24512 18.75 7.3291 18.75 8.66211V11.2158Z" fill="#3B82F6"/>
</svg>
