<svg width="31" height="31" viewBox="0 0 31 31" fill="none" xmlns="http://www.w3.org/2000/svg">
<path d="M21.0336 4.98019e-07C19.4778 -0.000398519 17.9435 0.363693 16.5537 1.0631C15.1639 1.7625 13.9573 2.77777 13.0305 4.02754C12.1037 5.27731 11.4825 6.72682 11.2167 8.25992C10.9509 9.79302 11.0479 11.3671 11.4999 12.8559L0 24.3571V31H6.64218L18.1421 19.4988C19.5126 19.9149 20.9566 20.0307 22.3758 19.8382C23.795 19.6457 25.156 19.1494 26.3661 18.3832C27.5762 17.6171 28.6069 16.599 29.388 15.3984C30.169 14.1978 30.6821 12.8429 30.8922 11.426C31.1023 10.0092 31.0045 8.56369 30.6055 7.18805C30.2064 5.81242 29.5155 4.539 28.5799 3.45457C27.6442 2.37015 26.4858 1.50021 25.1835 0.90406C23.8813 0.307906 22.4658 -0.000452332 21.0336 4.98019e-07ZM21.0336 17.7143C20.2713 17.7138 19.5133 17.6011 18.7839 17.3797L17.5143 16.9946L16.5765 17.9326L13.0549 21.4547L11.5287 19.9286L9.96327 21.4942L11.4895 23.0205L9.7339 24.7764L8.20763 23.25L6.64218 24.8156L8.16845 26.3419L5.72512 28.7857H2.21406V25.2743L13.0655 14.4218L14.0034 13.4836L13.6189 12.214C13.1457 10.654 13.1765 8.98454 13.7068 7.44304C14.237 5.90154 15.2399 4.56652 16.5726 3.62788C17.9053 2.68925 19.5 2.1948 21.1299 2.21487C22.7597 2.23495 24.3418 2.76851 25.651 3.73968C26.9602 4.71085 27.9298 6.07016 28.422 7.62425C28.9141 9.17834 28.9038 10.8481 28.3923 12.3959C27.8809 13.9438 26.8944 15.2909 25.5733 16.2458C24.2522 17.2006 22.6636 17.7145 21.0336 17.7143Z" fill="#161A24"/>
<path d="M22.1418 11.0714C23.3646 11.0714 24.3559 10.0801 24.3559 8.85714C24.3559 7.63423 23.3646 6.64286 22.1418 6.64286C20.919 6.64286 19.9277 7.63423 19.9277 8.85714C19.9277 10.0801 20.919 11.0714 22.1418 11.0714Z" fill="#161A24"/>
</svg>
