<svg width="15" height="15" viewBox="0 0 15 15" fill="none" xmlns="http://www.w3.org/2000/svg">
<path d="M14.8382 14.023L10.2442 9.42901C11.1819 8.28214 11.6429 6.81873 11.5319 5.34147C11.4209 3.86421 10.7464 2.48612 9.64783 1.49225C8.54926 0.498383 7.11072 -0.0352228 5.62976 0.0018059C4.1488 0.0388346 2.73872 0.643665 1.69119 1.69119C0.643665 2.73872 0.0388346 4.1488 0.0018059 5.62976C-0.0352228 7.11072 0.498383 8.54926 1.49225 9.64783C2.48612 10.7464 3.86421 11.4209 5.34147 11.5319C6.81873 11.6429 8.28214 11.1819 9.42901 10.2442L14.023 14.8382C14.1317 14.9432 14.2774 15.0013 14.4285 15C14.5797 14.9987 14.7243 14.938 14.8312 14.8312C14.938 14.7243 14.9987 14.5797 15 14.4285C15.0013 14.2774 14.9432 14.1317 14.8382 14.023ZM5.78331 10.3952C4.87117 10.3952 3.9795 10.1247 3.22108 9.61795C2.46266 9.11119 1.87155 8.39092 1.52248 7.5482C1.17342 6.70549 1.08209 5.77819 1.26004 4.88358C1.43799 3.98896 1.87723 3.1672 2.52221 2.52221C3.1672 1.87723 3.98896 1.43799 4.88358 1.26004C5.77819 1.08209 6.70549 1.17342 7.5482 1.52248C8.39092 1.87155 9.11119 2.46266 9.61795 3.22108C10.1247 3.9795 10.3952 4.87117 10.3952 5.78331C10.3938 7.00604 9.90749 8.17829 9.04289 9.04289C8.17829 9.90749 7.00604 10.3938 5.78331 10.3952Z" fill="#161A24"/>
</svg>
