<svg width="26" height="26" viewBox="0 0 26 26" fill="none" xmlns="http://www.w3.org/2000/svg">
<path d="M13 12.48C14.1867 12.48 15.3467 12.114 16.3334 11.4284C17.3201 10.7427 18.0892 9.76816 18.5433 8.62795C18.9974 7.48774 19.1162 6.23308 18.8847 5.02264C18.6532 3.8122 18.0818 2.70034 17.2426 1.82766C16.4035 0.954977 15.3344 0.360674 14.1705 0.119903C13.0067 -0.120869 11.8003 0.0027037 10.7039 0.474994C9.60754 0.947285 8.67047 1.74708 8.01118 2.77324C7.35189 3.79941 7 5.00585 7 6.24C7.00159 7.89445 7.63424 9.48065 8.75911 10.6505C9.88399 11.8204 11.4092 12.4783 13 12.48ZM13 2.08C13.7911 2.08 14.5645 2.32398 15.2223 2.78109C15.8801 3.2382 16.3928 3.8879 16.6955 4.64804C16.9983 5.40818 17.0775 6.24462 16.9231 7.05158C16.7688 7.85854 16.3878 8.59978 15.8284 9.18157C15.269 9.76335 14.5563 10.1596 13.7804 10.3201C13.0044 10.4806 12.2002 10.3982 11.4693 10.0833C10.7384 9.76848 10.1136 9.23528 9.67412 8.55117C9.2346 7.86706 9 7.06277 9 6.24C9 5.1367 9.42143 4.07859 10.1716 3.29844C10.9217 2.51829 11.9391 2.08 13 2.08Z" fill="#161A24"/>
<path d="M13 13.52C5.1 13.52 0 18.0107 0 24.96C0 25.2358 0.105357 25.5004 0.292893 25.6954C0.48043 25.8904 0.734784 26 1 26H25C25.2652 26 25.5196 25.8904 25.7071 25.6954C25.8946 25.5004 26 25.2358 26 24.96C26 18.0107 20.9 13.52 13 13.52ZM2.045 23.92C2.589 17.81 7.958 15.6 13 15.6C18.042 15.6 23.411 17.81 23.955 23.92H2.045Z" fill="#161A24"/>
</svg>
